<svg xmlns="http://www.w3.org/2000/svg" viewBox="0 0 77.2 18"><path d="M39.4,18q-4,0-5.4-3v-.4h2.2a3.6,3.6,0,0,0,3.3,1.6,3.8,3.8,0,0,0,1.9-.4,2.3,2.3,0,0,0,1.2-.9,2.5,2.5,0,0,0,.2-1v-.4l-.4.3-1,.5a7.8,7.8,0,0,1-2.2.3,5.7,5.7,0,0,1-3.8-1.3,4.3,4.3,0,0,1-1.5-3.3,4.4,4.4,0,0,1,1.6-3.3,5.7,5.7,0,0,1,7-.4l.3.2v-1h2v7a9.1,9.1,0,0,1-.3,2.7,8.3,8.3,0,0,1-1.1,1.5,5.1,5.1,0,0,1-1.8.9A7.3,7.3,0,0,1,39.4,18Zm.1-10.8a3.9,3.9,0,0,0-2.6.9,2.8,2.8,0,0,0-1,2.1,2.6,2.6,0,0,0,1,2,4.3,4.3,0,0,0,5,0,2.7,2.7,0,0,0,1-2.1,2.8,2.8,0,0,0-1-2.1A4.1,4.1,0,0,0,39.5,7.2Zm22.1,8a6,6,0,0,1-3.9-1.4,5.1,5.1,0,0,1-1.5-3.5,4.7,4.7,0,0,1,1.5-3.4,5.8,5.8,0,0,1,7.7-.1A5.1,5.1,0,0,1,67,10.5v.2H58.2V11a2.8,2.8,0,0,0,1,1.7,3.6,3.6,0,0,0,2.3.8,4,4,0,0,0,3.4-2v-.2l1.7.8v.2a6.4,6.4,0,0,1-2.1,2.2A7,7,0,0,1,61.6,15.2Zm0-8a3.2,3.2,0,0,0-3,1.6v.3h6.2V8.8a2.2,2.2,0,0,0-.9-1A3.7,3.7,0,0,0,61.6,7.2Zm-35.3,8a3.9,3.9,0,0,1-3.2-1.5h-.2l1.3-1.3.2.2a2.6,2.6,0,0,0,1.8.9,1.7,1.7,0,0,0,1-.3,1.4,1.4,0,0,0,.5-.8,1.3,1.3,0,0,0-.4-.7l-1.5-.8a5.6,5.6,0,0,1-1.7-1.1,2.2,2.2,0,0,1-.6-1.9,1.9,1.9,0,0,1,.8-1.6,3.7,3.7,0,0,1,2.2-.8,4.7,4.7,0,0,1,3,1.3l.2.2L28.4,8.1h-.2a3.1,3.1,0,0,0-1.7-.9,1.1,1.1,0,0,0-.8.3.7.7,0,0,0-.4.6.7.7,0,0,0,.4.6l1.5.8a8.3,8.3,0,0,1,1.7,1.2,2.4,2.4,0,0,1,.7,1.8,2.6,2.6,0,0,1-1,1.9A3.2,3.2,0,0,1,26.3,15.2Zm-9.1,0a5.6,5.6,0,0,1-3.9-1.4,4.7,4.7,0,0,1-1.5-3.5,4.3,4.3,0,0,1,1.5-3.4,5.1,5.1,0,0,1,3.9-1.5,5.3,5.3,0,0,1,3.7,1.4,4.4,4.4,0,0,1,1.6,3.7v.2H13.8V11a4.2,4.2,0,0,0,1,1.7,3.8,3.8,0,0,0,2.3.8,3.9,3.9,0,0,0,3.4-2v-.2l1.8.8-.2.2a6.4,6.4,0,0,1-2.1,2.2A6.5,6.5,0,0,1,17.2,15.2Zm-.1-8a3.1,3.1,0,0,0-2.9,1.6v.3h6.2V8.8a1.9,1.9,0,0,0-1-1A3.7,3.7,0,0,0,17.1,7.2Zm-11.7,8a5.1,5.1,0,0,1-3.1-1.1L2,13.9v1H0V2.3H2V6.6l.3-.2a5.8,5.8,0,0,1,3.2-1A5.4,5.4,0,0,1,9.3,6.8a4.8,4.8,0,0,1,1.6,3.5,4.4,4.4,0,0,1-1.6,3.4A5.6,5.6,0,0,1,5.4,15.2Zm0-8.1A3.7,3.7,0,0,0,2.9,8a2.9,2.9,0,0,0-1,2.2,3.3,3.3,0,0,0,1,2.3,3.5,3.5,0,0,0,2.5.9h0a3.8,3.8,0,0,0,2.5-.9,3.2,3.2,0,0,0,1-2.2,3,3,0,0,0-1-2.2A3.3,3.3,0,0,0,5.4,7.1Zm62.5,7.8V5.6H70v.5l.3-.2c0-.1.1-.1.2-.2a2.4,2.4,0,0,1,1.2-.3,2.7,2.7,0,0,1,1.4.4h.3L72.3,7.4h-.7c-.3,0-.5.2-.8.4a2.3,2.3,0,0,0-.6,1.2,9.8,9.8,0,0,0-.2,2.8v3.3Zm-14.6,0V10.5a8.2,8.2,0,0,0-.1-1.9,2.9,2.9,0,0,0-.4-.8,1.2,1.2,0,0,0-.7-.5l-1-.2a3.1,3.1,0,0,0-1.3.3l-1,.7-.5,1a6.6,6.6,0,0,0-.2,2.3v3.5h-2V5.6h2v1l.3-.2a5.1,5.1,0,0,1,2.9-1,4.6,4.6,0,0,1,2.1.5,4.3,4.3,0,0,1,1.5,1.5,6.4,6.4,0,0,1,.4,2.7v4.8Zm-22.6,0V5.6h2v9.3Zm1-10a1.8,1.8,0,0,1-1-.4,1.1,1.1,0,0,1-.4-.9,1.1,1.1,0,0,1,.4-.9,1.5,1.5,0,0,1,1-.4,1.8,1.8,0,0,1,1,.4,1.5,1.5,0,0,1,.4.9,1.5,1.5,0,0,1-.4.9A1.8,1.8,0,0,1,31.7,4.9Z" /></svg>
